<svg width="698" height="300" viewBox="0 0 698 300" fill="none" xmlns="http://www.w3.org/2000/svg">
<path fill-rule="evenodd" clip-rule="evenodd" d="M630.964 153.178L645.592 110.875L660.22 153.178L663.938 162.709L652.187 153.178H630.964ZM673.174 190.896H696.033L658.546 87.3565H632.667V87.3449L619.333 87.3269L629.627 95.2882L595.151 190.896H617.856L624.258 172.259H666.772L673.174 190.896ZM441.015 110.875L426.386 153.178H447.609L459.359 162.709L455.643 153.178L441.015 110.875ZM491.451 190.896H468.596L462.196 172.259H419.68L413.28 190.896H390.575L425.04 95.3141L414.714 87.3269L428.045 87.3449V87.3565H453.967L491.451 190.896ZM241.456 106.438H209.022V137.056H241.456C249.381 137.056 255.933 130.252 255.933 121.673C255.933 113.094 249.381 106.438 241.456 106.438ZM283.181 190.896H257.305L235.819 154.953H209.022V190.896H187.993V97.5389L174.79 87.3269L188.122 87.3449V87.3565H241.456C261.114 87.3565 276.962 102.74 276.962 121.673C276.962 134.689 268.581 146.375 256.39 151.847L283.181 190.896ZM112.568 153.178L127.197 110.875L141.825 153.178L145.541 162.709L133.79 153.178H112.568ZM154.778 190.896H177.636L140.149 87.3565H114.092L114.038 87.5035V87.3449L100.707 87.3269L111.181 95.428L76.7578 190.896H99.4627L105.863 172.259H148.378L154.778 190.896ZM89.3761 106.881V87.3565H13.4603V87.3449L0.128906 87.3269L11.7992 96.3527V190.896H32.828V150.96H74.2765V131.435H32.828V106.881H89.3761ZM563.783 87.3565V150.516L518.071 87.3565H502.164V87.3449L488.83 87.3269L502.068 97.5649V190.896H523.098V127.589L568.815 190.896H584.814V87.3565H563.783Z" fill="black"/>
<path d="M307.213 139.126C307.213 123.314 320.062 103.056 344.853 105.225C354.631 105.461 364.795 111.502 369.539 119.898L387.672 109.692C378.529 94.9001 361.31 85.2857 341.805 85.2857C340.56 85.2857 339.552 85.3062 338.112 85.3897C332.5 85.7143 329.296 86.193 323.943 87.8781C300.014 95.4108 286.337 114.756 286.337 139.126C286.337 163.373 300.017 182.803 323.93 190.357C329.28 192.047 332.482 192.537 338.092 192.862C338.851 192.906 339.385 192.926 340.036 192.944L340.369 192.951C340.845 192.962 341.324 192.967 341.805 192.967C361.462 192.967 378.681 183.353 387.672 168.561L369.539 158.355C364.938 166.61 354.465 172.778 344.879 172.878C326.614 174.512 307.213 164.717 307.213 139.126Z" fill="black"/>
<path d="M322.509 195.905C327.753 197.539 331.281 198.126 336.422 198.474C317.948 237.553 281.738 266.989 237.876 276.929C276.126 262.303 306.79 232.899 322.509 195.905Z" fill="black"/>
<path d="M331.489 112.318C335.176 111.014 339.443 110.428 344.323 110.855L344.509 110.871L344.696 110.876C345.389 110.893 346.087 110.948 346.786 111.039C348.686 120.175 349.684 129.63 349.684 139.314C349.684 148.802 348.726 158.072 346.9 167.036C346.195 167.125 345.494 167.175 344.803 167.182L344.57 167.184L344.338 167.205C339.919 167.6 335.539 167.218 331.536 166.057C333.159 157.383 334.009 148.445 334.009 139.313C334.009 130.093 333.143 121.07 331.489 112.318Z" fill="black"/>
<path d="M237.893 1.70055C281.597 11.6085 317.703 40.873 336.234 79.7464C331.157 80.0983 327.628 80.6892 322.349 82.3398C306.584 45.529 276.006 16.2774 237.893 1.70055Z" fill="black"/>
<path fill-rule="evenodd" clip-rule="evenodd" d="M490.768 270.878L501.583 239.605L512.397 270.878L515.144 277.924L506.457 270.878H490.768ZM521.973 298.762H538.871L511.158 222.219H491.895L491.855 222.327V222.21L482 222.196L489.743 228.185L464.295 298.762H481.08L485.812 284.984H517.242L521.973 298.762Z" fill="black"/>
<path d="M586.318 285.011C591.022 285.011 594.433 284.221 596.552 282.639C598.678 281.022 599.745 278.716 599.745 275.72V275.619C599.745 272.555 598.678 270.216 596.552 268.6C594.433 266.984 591.022 266.176 586.318 266.176H568.306V285.011H586.318ZM584.418 252.946C588.156 252.946 591.022 252.255 593.008 250.875C594.994 249.461 595.991 247.273 595.991 244.31V244.209C595.991 241.246 594.994 239.109 593.008 237.796C591.022 236.449 588.156 235.776 584.418 235.776H568.306V252.946H584.418ZM549.584 222.394H586.63C591.77 222.394 596.123 222.882 599.69 223.859C603.296 224.801 606.208 226.13 608.436 227.848C610.694 229.564 612.345 231.602 613.373 233.958C614.401 236.315 614.915 238.906 614.915 241.735V241.836C614.915 243.688 614.674 245.438 614.191 247.088C613.716 248.703 613.046 250.185 612.189 251.531C611.364 252.878 610.375 254.09 609.207 255.167C608.077 256.211 606.824 257.086 605.453 257.793V257.844C607.478 258.483 609.323 259.342 611.006 260.419C612.688 261.463 614.129 262.742 615.328 264.257C616.558 265.738 617.516 267.455 618.202 269.408C618.895 271.36 619.237 273.532 619.237 275.922V276.023C619.237 279.793 618.544 283.076 617.173 285.87C615.803 288.665 613.786 290.987 611.107 292.839C608.467 294.691 605.211 296.088 601.341 297.03C597.502 297.939 593.094 298.394 588.125 298.394H549.584V222.394ZM402.542 222.394H421.26V284.406H453.587V298.394H402.542V222.394Z" fill="black"/>
<path d="M663.73 298.871C658.502 298.871 653.769 298.317 649.531 297.206C645.339 296.143 641.736 294.547 638.722 292.42C635.708 290.293 633.306 287.703 631.517 284.651C629.727 281.552 628.62 278.014 628.196 274.037H646.352C647.058 278.477 648.965 281.645 652.074 283.541C655.229 285.437 659.256 286.385 664.154 286.385C666.273 286.385 668.204 286.2 669.947 285.83C671.736 285.46 673.267 284.928 674.538 284.234C675.81 283.494 676.799 282.57 677.505 281.459C678.212 280.35 678.565 279.032 678.565 277.506V277.367C678.565 275.748 678.212 274.384 677.505 273.274C676.846 272.164 675.88 271.216 674.609 270.43C673.337 269.643 671.807 268.996 670.017 268.488C668.274 267.932 666.297 267.447 664.083 267.031L652.568 264.603C649.224 263.909 646.163 262.961 643.385 261.758C640.606 260.556 638.228 259.053 636.25 257.249C634.272 255.4 632.718 253.272 631.587 250.868C630.504 248.416 629.963 245.641 629.963 242.543V242.404C629.963 239.121 630.763 236.138 632.364 233.455C634.013 230.773 636.25 228.461 639.076 226.518C641.901 224.576 645.245 223.073 649.107 222.009C652.969 220.946 657.16 220.414 661.681 220.414C666.249 220.414 670.417 220.853 674.185 221.732C677.953 222.565 681.226 223.882 684.004 225.686C686.83 227.49 689.114 229.802 690.857 232.623C692.646 235.398 693.8 238.751 694.318 242.682H676.233C675.904 240.786 675.292 239.213 674.397 237.964C673.549 236.716 672.466 235.722 671.147 234.982C669.876 234.195 668.392 233.641 666.697 233.317C665.049 232.993 663.235 232.831 661.257 232.831C659.374 232.831 657.631 233.039 656.03 233.455C654.429 233.825 653.039 234.381 651.862 235.12C650.731 235.814 649.837 236.693 649.178 237.757C648.518 238.82 648.188 240.023 648.188 241.364V241.502C648.188 244.092 649.154 246.081 651.085 247.468C653.016 248.856 655.747 249.942 659.279 250.729L670.653 253.087C674.515 253.874 678.047 254.821 681.249 255.932C684.452 257.041 687.183 258.452 689.444 260.163C691.751 261.828 693.541 263.909 694.813 266.406C696.084 268.857 696.72 271.84 696.72 275.355V275.494C696.72 279.147 695.896 282.431 694.248 285.344C692.599 288.258 690.315 290.709 687.395 292.697C684.475 294.686 680.99 296.212 676.94 297.276C672.937 298.34 668.533 298.871 663.73 298.871Z" fill="black"/>
</svg>
